<svg width="67" height="25" viewBox="0 0 67 25" fill="none" xmlns="http://www.w3.org/2000/svg">
<path d="M18.8977 12.6364C18.8977 13.5966 18.7131 14.4105 18.3438 15.0781C17.9744 15.7457 17.4744 16.2528 16.8438 16.5994C16.2159 16.946 15.5114 17.1193 14.7301 17.1193C13.946 17.1193 13.2401 16.9446 12.6122 16.5952C11.9844 16.2457 11.4858 15.7386 11.1165 15.0739C10.75 14.4062 10.5668 13.5937 10.5668 12.6364C10.5668 11.6761 10.75 10.8622 11.1165 10.1946C11.4858 9.52699 11.9844 9.01989 12.6122 8.6733C13.2401 8.3267 13.946 8.15341 14.7301 8.15341C15.5114 8.15341 16.2159 8.3267 16.8438 8.6733C17.4744 9.01989 17.9744 9.52699 18.3438 10.1946C18.7131 10.8622 18.8977 11.6761 18.8977 12.6364ZM16.7415 12.6364C16.7415 12.0682 16.6605 11.5881 16.4986 11.196C16.3395 10.804 16.1094 10.5071 15.8082 10.3054C15.5099 10.1037 15.1506 10.0028 14.7301 10.0028C14.3125 10.0028 13.9531 10.1037 13.652 10.3054C13.3509 10.5071 13.1193 10.804 12.9574 11.196C12.7983 11.5881 12.7188 12.0682 12.7188 12.6364C12.7188 13.2045 12.7983 13.6847 12.9574 14.0767C13.1193 14.4687 13.3509 14.7656 13.652 14.9673C13.9531 15.169 14.3125 15.2699 14.7301 15.2699C15.1506 15.2699 15.5099 15.169 15.8082 14.9673C16.1094 14.7656 16.3395 14.4687 16.4986 14.0767C16.6605 13.6847 16.7415 13.2045 16.7415 12.6364ZM20.1293 19.4545V10.4545H22.1918V11.5753H22.2557C22.3409 11.3764 22.4616 11.1847 22.6179 11C22.777 10.8153 22.9787 10.6648 23.223 10.5483C23.4702 10.429 23.7656 10.3693 24.1094 10.3693C24.5639 10.3693 24.9886 10.4886 25.3835 10.7273C25.7812 10.9659 26.1023 11.3338 26.3466 11.831C26.5909 12.3281 26.7131 12.9616 26.7131 13.7315C26.7131 14.473 26.5952 15.0938 26.3594 15.5938C26.1264 16.0938 25.8111 16.4688 25.4134 16.7188C25.0185 16.9688 24.5795 17.0938 24.0966 17.0938C23.767 17.0938 23.4815 17.0398 23.2401 16.9318C22.9986 16.8239 22.7955 16.6818 22.6307 16.5057C22.4688 16.3295 22.3438 16.1406 22.2557 15.9389H22.2131V19.4545H20.1293ZM22.1705 13.7273C22.1705 14.0795 22.2173 14.3864 22.3111 14.6477C22.4077 14.9091 22.5455 15.1122 22.7244 15.2571C22.9062 15.3991 23.1236 15.4702 23.3764 15.4702C23.6321 15.4702 23.8494 15.3991 24.0284 15.2571C24.2074 15.1122 24.3423 14.9091 24.4332 14.6477C24.527 14.3864 24.5739 14.0795 24.5739 13.7273C24.5739 13.375 24.527 13.0696 24.4332 12.8111C24.3423 12.5526 24.2074 12.3523 24.0284 12.2102C23.8523 12.0682 23.6349 11.9972 23.3764 11.9972C23.1207 11.9972 22.9034 12.0668 22.7244 12.206C22.5455 12.3452 22.4077 12.544 22.3111 12.8026C22.2173 13.0611 22.1705 13.3693 22.1705 13.7273ZM27.805 17V10.4545H29.8888V17H27.805ZM28.8491 9.69176C28.5565 9.69176 28.305 9.59517 28.0948 9.40199C27.8846 9.20597 27.7795 8.97017 27.7795 8.6946C27.7795 8.42187 27.8846 8.18892 28.0948 7.99574C28.305 7.79972 28.5565 7.7017 28.8491 7.7017C29.1445 7.7017 29.396 7.79972 29.6033 7.99574C29.8136 8.18892 29.9187 8.42187 29.9187 8.6946C29.9187 8.97017 29.8136 9.20597 29.6033 9.40199C29.396 9.59517 29.1445 9.69176 28.8491 9.69176ZM33.299 13.267V17H31.2152V10.4545H33.1967V11.6562H33.2692C33.4141 11.2557 33.6612 10.9418 34.0107 10.7145C34.3601 10.4844 34.7763 10.3693 35.2592 10.3693C35.7195 10.3693 36.1186 10.473 36.4567 10.6804C36.7976 10.8849 37.0618 11.1719 37.2493 11.5412C37.4396 11.9077 37.5334 12.3366 37.5305 12.8281V17H35.4467V13.2372C35.4496 12.8736 35.3572 12.5895 35.1697 12.3849C34.9851 12.1804 34.728 12.0781 34.3984 12.0781C34.1797 12.0781 33.9865 12.1264 33.8189 12.223C33.6541 12.3168 33.5263 12.4517 33.4354 12.6278C33.3473 12.804 33.3018 13.017 33.299 13.267ZM38.8207 17V10.4545H40.9045V17H38.8207ZM39.8647 9.69176C39.5721 9.69176 39.3207 9.59517 39.1104 9.40199C38.9002 9.20597 38.7951 8.97017 38.7951 8.6946C38.7951 8.42187 38.9002 8.18892 39.1104 7.99574C39.3207 7.79972 39.5721 7.7017 39.8647 7.7017C40.1602 7.7017 40.4116 7.79972 40.619 7.99574C40.8292 8.18892 40.9343 8.42187 40.9343 8.6946C40.9343 8.97017 40.8292 9.20597 40.619 9.40199C40.4116 9.59517 40.1602 9.69176 39.8647 9.69176ZM45.2862 17.1236C44.5987 17.1236 44.0078 16.983 43.5135 16.7017C43.022 16.4176 42.6428 16.0227 42.3757 15.517C42.1115 15.0085 41.9794 14.419 41.9794 13.7486C41.9794 13.0753 42.1115 12.4858 42.3757 11.9801C42.6428 11.4716 43.022 11.0767 43.5135 10.7955C44.0078 10.5114 44.5987 10.3693 45.2862 10.3693C45.9737 10.3693 46.5632 10.5114 47.0547 10.7955C47.549 11.0767 47.9283 11.4716 48.1925 11.9801C48.4595 12.4858 48.593 13.0753 48.593 13.7486C48.593 14.419 48.4595 15.0085 48.1925 15.517C47.9283 16.0227 47.549 16.4176 47.0547 16.7017C46.5632 16.983 45.9737 17.1236 45.2862 17.1236ZM45.299 15.5511C45.549 15.5511 45.7607 15.4744 45.9339 15.321C46.1072 15.1676 46.2393 14.9545 46.3303 14.6818C46.424 14.4091 46.4709 14.0937 46.4709 13.7358C46.4709 13.3722 46.424 13.054 46.3303 12.7812C46.2393 12.5085 46.1072 12.2955 45.9339 12.142C45.7607 11.9886 45.549 11.9119 45.299 11.9119C45.0405 11.9119 44.8217 11.9886 44.6428 12.142C44.4666 12.2955 44.3317 12.5085 44.2379 12.7812C44.147 13.054 44.1016 13.3722 44.1016 13.7358C44.1016 14.0937 44.147 14.4091 44.2379 14.6818C44.3317 14.9545 44.4666 15.1676 44.6428 15.321C44.8217 15.4744 45.0405 15.5511 45.299 15.5511ZM51.7443 13.267V17H49.6605V10.4545H51.642V11.6562H51.7145C51.8594 11.2557 52.1065 10.9418 52.456 10.7145C52.8054 10.4844 53.2216 10.3693 53.7045 10.3693C54.1648 10.3693 54.5639 10.473 54.902 10.6804C55.2429 10.8849 55.5071 11.1719 55.6946 11.5412C55.8849 11.9077 55.9787 12.3366 55.9759 12.8281V17H53.892V13.2372C53.8949 12.8736 53.8026 12.5895 53.6151 12.3849C53.4304 12.1804 53.1733 12.0781 52.8438 12.0781C52.625 12.0781 52.4318 12.1264 52.2642 12.223C52.0994 12.3168 51.9716 12.4517 51.8807 12.6278C51.7926 12.804 51.7472 13.017 51.7443 13.267Z" fill="black" fill-opacity="0.8"/>
<rect x="0.8" y="0.8" width="65.4" height="23.4" rx="11.7" stroke="black" stroke-opacity="0.8" stroke-width="1.6"/>
</svg>
