<svg width="79" height="25" viewBox="0 0 79 25" fill="none" xmlns="http://www.w3.org/2000/svg">
<path d="M11.2931 9.9858V8.27273H18.6695V9.9858H16.0232V17H13.9436V9.9858H11.2931ZM21.8101 17.1236C21.1255 17.1236 20.5345 16.9886 20.0374 16.7188C19.5431 16.446 19.1624 16.0582 18.8953 15.5554C18.6311 15.0497 18.499 14.4489 18.499 13.7528C18.499 13.0767 18.6326 12.4858 18.8996 11.9801C19.1667 11.4716 19.5431 11.0767 20.0289 10.7955C20.5147 10.5114 21.0871 10.3693 21.7462 10.3693C22.2121 10.3693 22.6382 10.4418 23.0246 10.5866C23.411 10.7315 23.7448 10.946 24.026 11.2301C24.3073 11.5142 24.526 11.8651 24.6823 12.2827C24.8385 12.6974 24.9167 13.1733 24.9167 13.7102V14.2301H19.2277V13.0199H22.9777C22.9749 12.7983 22.9223 12.6009 22.8201 12.4276C22.7178 12.2543 22.5772 12.1193 22.3982 12.0227C22.222 11.9233 22.0189 11.8736 21.7888 11.8736C21.5559 11.8736 21.347 11.9261 21.1624 12.0312C20.9777 12.1335 20.8314 12.2741 20.7235 12.4531C20.6155 12.6293 20.5587 12.8295 20.553 13.054V14.2855C20.553 14.5526 20.6056 14.7869 20.7107 14.9886C20.8158 15.1875 20.9649 15.3423 21.1581 15.4531C21.3513 15.5639 21.5814 15.6193 21.8485 15.6193C22.0331 15.6193 22.2007 15.5937 22.3513 15.5426C22.5019 15.4915 22.6311 15.4162 22.7391 15.3168C22.847 15.2173 22.928 15.0952 22.982 14.9503L24.8953 15.0057C24.8158 15.4347 24.6411 15.8082 24.3712 16.1264C24.1042 16.4418 23.7533 16.6875 23.3186 16.8636C22.884 17.0369 22.3811 17.1236 21.8101 17.1236ZM29.0363 17.1236C28.346 17.1236 27.7537 16.9815 27.2593 16.6974C26.7679 16.4134 26.39 16.0185 26.1258 15.5128C25.8616 15.0043 25.7295 14.4162 25.7295 13.7486C25.7295 13.0781 25.8616 12.4901 26.1258 11.9844C26.3929 11.4759 26.7721 11.0795 27.2636 10.7955C27.7579 10.5114 28.3474 10.3693 29.0321 10.3693C29.6372 10.3693 30.1642 10.4787 30.613 10.6974C31.0647 10.9162 31.417 11.2259 31.6698 11.6264C31.9255 12.0241 32.0605 12.4915 32.0747 13.0284H30.1272C30.0875 12.6932 29.9738 12.4304 29.7863 12.2401C29.6017 12.0497 29.3602 11.9545 29.0619 11.9545C28.8204 11.9545 28.6088 12.0227 28.4269 12.1591C28.2451 12.2926 28.1031 12.4915 28.0008 12.7557C27.9014 13.017 27.8517 13.3409 27.8517 13.7273C27.8517 14.1136 27.9014 14.4403 28.0008 14.7074C28.1031 14.9716 28.2451 15.1719 28.4269 15.3082C28.6088 15.4418 28.8204 15.5085 29.0619 15.5085C29.2551 15.5085 29.4255 15.4673 29.5733 15.3849C29.7238 15.3026 29.8474 15.1818 29.944 15.0227C30.0406 14.8608 30.1017 14.6648 30.1272 14.4347H32.0747C32.0548 14.9744 31.9198 15.446 31.6698 15.8494C31.4227 16.2528 31.0747 16.5668 30.6258 16.7912C30.1798 17.0128 29.65 17.1236 29.0363 17.1236ZM35.2249 13.267V17H33.1411V8.27273H35.1567V11.6562H35.2292C35.3769 11.2528 35.6184 10.9375 35.9536 10.7102C36.2917 10.483 36.705 10.3693 37.1936 10.3693C37.6539 10.3693 38.0544 10.4716 38.3953 10.6761C38.7363 10.8778 39.0005 11.1634 39.188 11.5327C39.3783 11.902 39.472 12.3338 39.4692 12.8281V17H37.3854V13.2372C37.3882 12.8736 37.2973 12.5895 37.1127 12.3849C36.928 12.1804 36.6681 12.0781 36.3328 12.0781C36.1141 12.0781 35.9209 12.1264 35.7533 12.223C35.5885 12.3168 35.4593 12.4517 35.3655 12.6278C35.2746 12.804 35.2277 13.017 35.2249 13.267ZM42.8538 13.267V17H40.77V10.4545H42.7515V11.6562H42.824C42.9689 11.2557 43.216 10.9418 43.5654 10.7145C43.9149 10.4844 44.3311 10.3693 44.814 10.3693C45.2743 10.3693 45.6734 10.473 46.0115 10.6804C46.3524 10.8849 46.6166 11.1719 46.8041 11.5412C46.9944 11.9077 47.0882 12.3366 47.0853 12.8281V17H45.0015V13.2372C45.0044 12.8736 44.912 12.5895 44.7245 12.3849C44.5399 12.1804 44.2828 12.0781 43.9532 12.0781C43.7345 12.0781 43.5413 12.1264 43.3737 12.223C43.2089 12.3168 43.0811 12.4517 42.9902 12.6278C42.9021 12.804 42.8566 13.017 42.8538 13.267ZM48.3755 17V10.4545H50.4593V17H48.3755ZM49.4195 9.69176C49.1269 9.69176 48.8755 9.59517 48.6652 9.40199C48.455 9.20597 48.3499 8.97017 48.3499 8.6946C48.3499 8.42187 48.455 8.18892 48.6652 7.99574C48.8755 7.79972 49.1269 7.7017 49.4195 7.7017C49.7149 7.7017 49.9664 7.79972 50.1738 7.99574C50.384 8.18892 50.4891 8.42187 50.4891 8.6946C50.4891 8.97017 50.384 9.20597 50.1738 9.40199C49.9664 9.59517 49.7149 9.69176 49.4195 9.69176ZM54.841 17.1236C54.1507 17.1236 53.5583 16.9815 53.064 16.6974C52.5725 16.4134 52.1947 16.0185 51.9305 15.5128C51.6663 15.0043 51.5342 14.4162 51.5342 13.7486C51.5342 13.0781 51.6663 12.4901 51.9305 11.9844C52.1975 11.4759 52.5768 11.0795 53.0683 10.7955C53.5626 10.5114 54.1521 10.3693 54.8368 10.3693C55.4419 10.3693 55.9689 10.4787 56.4177 10.6974C56.8694 10.9162 57.2217 11.2259 57.4745 11.6264C57.7302 12.0241 57.8652 12.4915 57.8794 13.0284H55.9319C55.8921 12.6932 55.7785 12.4304 55.591 12.2401C55.4064 12.0497 55.1649 11.9545 54.8666 11.9545C54.6251 11.9545 54.4135 12.0227 54.2316 12.1591C54.0498 12.2926 53.9078 12.4915 53.8055 12.7557C53.7061 13.017 53.6564 13.3409 53.6564 13.7273C53.6564 14.1136 53.7061 14.4403 53.8055 14.7074C53.9078 14.9716 54.0498 15.1719 54.2316 15.3082C54.4135 15.4418 54.6251 15.5085 54.8666 15.5085C55.0598 15.5085 55.2302 15.4673 55.3779 15.3849C55.5285 15.3026 55.6521 15.1818 55.7487 15.0227C55.8453 14.8608 55.9064 14.6648 55.9319 14.4347H57.8794C57.8595 14.9744 57.7245 15.446 57.4745 15.8494C57.2274 16.2528 56.8794 16.5668 56.4305 16.7912C55.9845 17.0128 55.4546 17.1236 54.841 17.1236ZM60.7909 17.1108C60.3733 17.1108 60.0026 17.0412 59.6787 16.902C59.3577 16.7599 59.1034 16.5469 58.9159 16.2628C58.7313 15.9759 58.639 15.6165 58.639 15.1847C58.639 14.821 58.7029 14.5142 58.8307 14.2642C58.9586 14.0142 59.1347 13.8111 59.3591 13.6548C59.5836 13.4986 59.8421 13.3807 60.1347 13.3011C60.4273 13.2187 60.7398 13.1634 61.0722 13.1349C61.4444 13.1009 61.7441 13.0653 61.9713 13.0284C62.1986 12.9886 62.3634 12.9332 62.4657 12.8622C62.5708 12.7884 62.6233 12.6847 62.6233 12.5511V12.5298C62.6233 12.3111 62.548 12.142 62.3975 12.0227C62.2469 11.9034 62.0438 11.8438 61.7881 11.8438C61.5125 11.8438 61.2909 11.9034 61.1233 12.0227C60.9557 12.142 60.8492 12.3068 60.8037 12.517L58.8819 12.4489C58.9387 12.0511 59.085 11.696 59.3208 11.3835C59.5594 11.0682 59.8861 10.821 60.3009 10.642C60.7185 10.4602 61.2199 10.3693 61.8051 10.3693C62.2228 10.3693 62.6077 10.419 62.96 10.5185C63.3122 10.6151 63.6191 10.7571 63.8804 10.9446C64.1418 11.1293 64.3435 11.3565 64.4855 11.6264C64.6304 11.8963 64.7029 12.2045 64.7029 12.5511V17H62.7426V16.0881H62.6915C62.575 16.3097 62.4259 16.4972 62.2441 16.6506C62.0651 16.804 61.8534 16.919 61.6091 16.9957C61.3676 17.0724 61.0949 17.1108 60.7909 17.1108ZM61.4344 15.7472C61.6588 15.7472 61.8605 15.7017 62.0395 15.6108C62.2213 15.5199 62.3662 15.3949 62.4742 15.2358C62.5821 15.0739 62.6361 14.8864 62.6361 14.6733V14.0511C62.5765 14.0824 62.504 14.1108 62.4188 14.1364C62.3364 14.1619 62.2455 14.1861 62.1461 14.2088C62.0466 14.2315 61.9444 14.2514 61.8392 14.2685C61.7341 14.2855 61.6333 14.3011 61.5367 14.3153C61.3407 14.3466 61.173 14.3949 61.0338 14.4602C60.8975 14.5256 60.7924 14.6108 60.7185 14.7159C60.6475 14.8182 60.612 14.9403 60.612 15.0824C60.612 15.2983 60.6887 15.4631 60.8421 15.5767C60.9983 15.6903 61.1958 15.7472 61.4344 15.7472ZM68.0608 8.27273V17H65.977V8.27273H68.0608Z" fill="#FF4000"/>
<rect x="0.8" y="0.8" width="77.4" height="23.4" rx="11.7" stroke="#FF4000" stroke-width="1.6"/>
</svg>
